<svg width="8" height="8" viewBox="0 0 8 8" fill="none" xmlns="http://www.w3.org/2000/svg">
<g id="globe" clip-path="url(#clip0_93_3403)">
<path id="Icon" d="M7.33268 3.99996C7.33268 5.84091 5.8403 7.33329 3.99935 7.33329M7.33268 3.99996C7.33268 2.15901 5.8403 0.666626 3.99935 0.666626M7.33268 3.99996H0.666016M3.99935 7.33329C2.1584 7.33329 0.666016 5.84091 0.666016 3.99996M3.99935 7.33329C4.83311 6.42051 5.30693 5.23595 5.33268 3.99996C5.30693 2.76397 4.83311 1.57941 3.99935 0.666626M3.99935 7.33329C3.16559 6.42051 2.69176 5.23595 2.66602 3.99996C2.69176 2.76397 3.16559 1.57941 3.99935 0.666626M0.666016 3.99996C0.666016 2.15901 2.1584 0.666626 3.99935 0.666626" stroke="#666666" stroke-width="0.5" stroke-linecap="round" stroke-linejoin="round"/>
</g>
<defs>
<clipPath id="clip0_93_3403">
<rect width="8" height="8" fill="white"/>
</clipPath>
</defs>
</svg>
