<svg xmlns="http://www.w3.org/2000/svg" xmlns:xlink="http://www.w3.org/1999/xlink" viewBox="0 0 202.21 174.08"><defs><style>.cls-1{fill:#41b3f9;}.cls-2{fill:url(#linear-gradient);}.cls-3{fill:url(#linear-gradient-2);}.cls-4{fill:#3fa9f5;}.cls-5{fill:url(#linear-gradient-3);}.cls-6{fill:url(#linear-gradient-4);}</style><linearGradient id="linear-gradient" x1="509.2" y1="81.25" x2="667.02" y2="81.25" gradientTransform="matrix(-1, 0, 0, 1, 698.52, 0)" gradientUnits="userSpaceOnUse"><stop offset="0" stop-color="#5ba2ed"/><stop offset="1" stop-color="#346ed4"/></linearGradient><linearGradient id="linear-gradient-2" x1="496.31" y1="95.47" x2="649.06" y2="95.47" xlink:href="#linear-gradient"/><linearGradient id="linear-gradient-3" x1="12.89" y1="82.43" x2="170.71" y2="82.43" gradientUnits="userSpaceOnUse"><stop offset="0" stop-color="#3fa9f5"/><stop offset="0.31" stop-color="#3099ee"/><stop offset="0.9" stop-color="#076fdb"/><stop offset="1" stop-color="#0067d8"/></linearGradient><linearGradient id="linear-gradient-4" x1="0" y1="96.65" x2="152.75" y2="96.65" xlink:href="#linear-gradient-3"/></defs><g id="Layer_2" data-name="Layer 2"><g id="Layer_1-2" data-name="Layer 1"><path class="cls-1" d="M31.5,143.61c5.71,5.71,21.61,0,41.64-13.61a298.44,298.44,0,0,0,31.2-24.68c5.14-4.61,10.35-9.54,15.55-14.74,6.64-6.64,12.84-13.29,18.5-19.81C166,38.93,181,10.29,172.92,2.19s-36.74,6.88-68.58,34.53c-6.52,5.66-13.17,11.86-19.81,18.5-5.2,5.2-10.13,10.41-14.74,15.55a297.53,297.53,0,0,0-24.63,31.14C31.55,122,25.79,137.9,31.5,143.61Z"/><path class="cls-2" d="M31.5,143.61a99.79,99.79,0,0,0,18,14.25c13.31,5.24,32.48,1.87,52.83-8.54,14.51-7.42,29.62-18.41,43.63-32.42C180.8,82,197,40.33,185.81,18A99.7,99.7,0,0,0,172.92,2.19c8.1,8.1-6.88,36.74-34.53,68.58-5.66,6.52-11.86,13.17-18.5,19.81-5.2,5.2-10.41,10.13-15.55,14.74A298.44,298.44,0,0,1,73.14,130C53.11,143.57,37.21,149.32,31.5,143.61Z"/><path class="cls-3" d="M49.46,157.86a100,100,0,0,0,125.13-16h0l.93-1,0,0A100,100,0,0,0,185.81,18c11.19,22.3-5,64-39.89,98.87-14,14-29.12,25-43.63,32.42C81.94,159.73,62.77,163.1,49.46,157.86Z"/><path class="cls-4" d="M170.71,144.79c-5.71,5.71-21.61,0-41.64-13.61a298.44,298.44,0,0,1-31.2-24.68C92.73,101.89,87.52,97,82.32,91.76,75.68,85.12,69.48,78.47,63.82,72,36.17,40.11,21.19,11.47,29.29,3.37S66,10.25,97.87,37.9c6.52,5.66,13.17,11.86,19.81,18.5,5.2,5.2,10.13,10.41,14.74,15.55a297.53,297.53,0,0,1,24.63,31.14C170.66,123.15,176.42,139.08,170.71,144.79Z"/><path class="cls-5" d="M170.71,144.79a99.79,99.79,0,0,1-18,14.25c-13.31,5.24-32.48,1.87-52.83-8.54-14.51-7.42-29.62-18.41-43.63-32.42C21.41,83.2,5.21,41.51,16.4,19.21A99.7,99.7,0,0,1,29.29,3.37c-8.1,8.1,6.88,36.74,34.53,68.58,5.66,6.52,11.86,13.17,18.5,19.81,5.2,5.2,10.41,10.13,15.55,14.74a298.44,298.44,0,0,0,31.2,24.68C149.1,144.75,165,150.5,170.71,144.79Z"/><path class="cls-6" d="M152.75,159a100,100,0,0,1-125.13-16h0l-.93-1,0,0A100,100,0,0,1,16.4,19.21c-11.19,22.3,5,64,39.89,98.87,14,14,29.12,25,43.63,32.42C120.27,160.91,139.44,164.28,152.75,159Z"/></g></g></svg>