<svg width="24" height="24" viewBox="0 0 24 24" fill="none" xmlns="http://www.w3.org/2000/svg">
<g id="thumbs-up">
<path id="Icon" d="M17 22H20C20.5304 22 21.0391 21.7893 21.4142 21.4142C21.7893 21.0391 22 20.5304 22 20V13C22 12.4696 21.7893 11.9609 21.4142 11.5858C21.0391 11.2107 20.5304 11 20 11H17M10 9V5C10 4.20435 10.3161 3.44129 10.8787 2.87868C11.4413 2.31607 12.2044 2 13 2L17 11V22H5.72C5.23767 22.0055 4.76962 21.8364 4.40209 21.524C4.03457 21.2116 3.79232 20.7769 3.72 20.3L2.34 11.3C2.29649 11.0134 2.31583 10.7207 2.39666 10.4423C2.47749 10.1638 2.6179 9.90629 2.80814 9.68751C2.99839 9.46873 3.23392 9.29393 3.49843 9.17522C3.76294 9.0565 4.05009 8.99672 4.34 9H10Z" stroke="#006EFF" stroke-width="1.5" stroke-linecap="round" stroke-linejoin="round"/>
</g>
</svg>
